<?xml version="1.0" encoding="UTF-8"?>
<svg id="Layer_15" data-name="Layer 15" xmlns="http://www.w3.org/2000/svg" viewBox="0 0 420 52">
  <defs>
    <style>
      .cls-1 {
        fill: #eae0d4;
      }

      .cls-2 {
        fill: #8ac957;
      }

      .cls-3 {
        fill: #181410;
      }
    </style>
  </defs>
  <circle class="cls-2" cx="26.26" cy="26" r="21.96"/>
  <path class="cls-3" d="m19.64,38.89c.12-.32,1.69-4.44,1.82-5.01s-3.11-1.28-5.73-3.08c-2.62-1.8-7.33-9.34-6.49-9.34.84,0,1.69.12,4.04.92s4.2,1.96,4.2,1.96c0,0-.35-2.75-.26-4.16s.25-3.28.56-3.25,1.66.88,2.08,1.36c.41.48,3.02,3.11,3.25,3.44s1.43-3.53,2.13-4.74c.69-1.21,3.27-5.13,3.51-5.06.24.08,1.3,3.65,1.3,6.09,0,2.44.09,1.79,0,2.44s1.16-.99,1.4-.76-.24,1.41-.29,1.75c-.05.34-.54,2.08-.54,2.08l4.13-2.54s2.53-1.22,2.86-.94c.33.28-1.99,4.82-2.55,5.51-.56.69-1.79,3.12-1.47,3.21.32.09.95-.02.95-.02,0,0,.16-.07,2.34-.05s7.08,1.32,6.45,1.84c-.63.51-5.33,3.55-7.5,4.17s-3.28.32-4.2.47-6.61-.27-6.61-.27c0,0-2.4,4.92-2.53,5.12-.13.2-2.97-.84-2.85-1.16Z"/>
  <g>
    <path class="cls-1" d="m60.78,40.69V10.88h8.09v23.29h12.05v6.52h-20.14Z"/>
    <path class="cls-1" d="m84.3,40.69v-22.36h8.03v22.36h-8.03Z"/>
    <path class="cls-1" d="m84.3,11.72h0c0-2.2,1.78-3.98,3.98-3.98h.08c2.2,0,3.98,1.78,3.98,3.98h0c0,2.2-1.78,3.98-3.98,3.98h-.08c-2.2,0-3.98-1.78-3.98-3.98Z"/>
    <path class="cls-1" d="m107.18,49.54c-2.24,0-4.16-.32-5.76-.95-1.6-.64-2.83-1.51-3.71-2.62-.88-1.11-1.37-2.38-1.48-3.82h7.74c.08.48.27.86.58,1.15.31.29.71.5,1.2.63s1.04.2,1.65.2c1.04,0,1.9-.25,2.58-.76.68-.5,1.03-1.42,1.03-2.74v-3.78h-.23c-.29.76-.74,1.4-1.34,1.93-.6.53-1.32.93-2.17,1.21-.84.28-1.77.42-2.78.42-1.59,0-3.05-.37-4.39-1.11-1.33-.74-2.4-1.91-3.2-3.51-.8-1.6-1.2-3.69-1.2-6.27s.42-4.89,1.26-6.58c.84-1.69,1.93-2.93,3.26-3.71,1.33-.79,2.74-1.18,4.21-1.18,1.11,0,2.08.19,2.91.58.83.38,1.53.89,2.1,1.53s.99,1.33,1.28,2.09h.18v-3.9h8.03v22.3c0,1.89-.49,3.5-1.46,4.82-.97,1.32-2.35,2.34-4.11,3.04-1.77.7-3.83,1.05-6.19,1.05Zm.29-14.85c.74,0,1.37-.21,1.9-.62s.94-1,1.22-1.78.43-1.7.43-2.79-.14-2.05-.43-2.85c-.29-.79-.69-1.4-1.22-1.82-.53-.42-1.16-.63-1.9-.63s-1.37.21-1.88.63c-.52.42-.92,1.03-1.19,1.82-.28.79-.42,1.74-.42,2.85s.14,2.04.42,2.82c.28.77.67,1.36,1.19,1.76.52.4,1.15.6,1.88.6Z"/>
    <path class="cls-1" d="m131.05,28.11v12.58h-8.03v-22.36h7.63v4.25h.23c.49-1.42,1.34-2.53,2.57-3.33,1.23-.81,2.66-1.21,4.3-1.21s2.96.36,4.13,1.08c1.17.72,2.08,1.72,2.72,2.98.65,1.26.96,2.7.95,4.32v14.26h-8.03v-12.58c0-1.11-.27-1.97-.84-2.61s-1.36-.95-2.36-.95c-.66,0-1.24.14-1.73.43s-.87.69-1.13,1.22c-.26.53-.4,1.16-.41,1.9Z"/>
    <path class="cls-1" d="m160.28,41.1c-2.43,0-4.5-.48-6.23-1.45-1.73-.97-3.05-2.31-3.97-4.05-.92-1.73-1.38-3.74-1.38-6.03s.46-4.3,1.38-6.03c.92-1.73,2.25-3.08,3.97-4.05,1.73-.97,3.8-1.45,6.23-1.45s4.5.48,6.23,1.45,3.05,2.31,3.97,4.05c.92,1.73,1.38,3.74,1.38,6.03s-.46,4.3-1.38,6.03c-.92,1.73-2.25,3.08-3.97,4.05s-3.8,1.45-6.23,1.45Zm.06-5.94c.68,0,1.27-.23,1.76-.68.5-.46.88-1.11,1.15-1.95.27-.84.41-1.85.41-3.01s-.14-2.18-.41-3.02c-.27-.84-.65-1.49-1.15-1.94-.49-.46-1.08-.68-1.76-.68-.72,0-1.33.23-1.85.68s-.91,1.1-1.18,1.94c-.27.84-.41,1.85-.41,3.02s.14,2.17.41,3.01c.27.84.66,1.49,1.18,1.95s1.13.68,1.85.68Z"/>
    <path class="cls-1" d="m195.56,25.61h-7.39c-.04-.46-.2-.85-.48-1.18s-.64-.58-1.08-.76c-.44-.18-.93-.27-1.46-.27-.69,0-1.28.13-1.78.38-.49.25-.74.61-.73,1.08,0,.33.13.64.43.92s.87.5,1.73.65l4.54.82c2.29.42,4,1.12,5.12,2.1s1.69,2.3,1.7,3.95c0,1.59-.48,2.97-1.42,4.14-.94,1.17-2.21,2.07-3.83,2.71-1.62.64-3.46.95-5.52.95-3.42,0-6.09-.7-8.01-2.1-1.93-1.4-3-3.24-3.22-5.53h7.98c.11.71.46,1.25,1.05,1.64.6.38,1.35.58,2.26.58.74,0,1.35-.13,1.83-.38s.73-.61.74-1.08c-.01-.43-.22-.77-.63-1.02s-1.05-.46-1.93-.61l-3.96-.7c-2.28-.4-3.99-1.15-5.12-2.27-1.14-1.12-1.7-2.55-1.69-4.31,0-1.55.4-2.87,1.23-3.95s2.02-1.91,3.57-2.47c1.55-.57,3.38-.85,5.51-.85,3.23,0,5.78.67,7.65,2.01,1.87,1.34,2.85,3.19,2.95,5.56Z"/>
    <path class="cls-1" d="m207.32,40.98c-1.59,0-3.05-.42-4.39-1.25-1.33-.83-2.4-2.1-3.2-3.8s-1.2-3.84-1.2-6.42.42-4.89,1.26-6.58c.84-1.69,1.93-2.93,3.26-3.71,1.33-.79,2.74-1.18,4.21-1.18,1.11,0,2.08.19,2.91.58.83.38,1.53.89,2.1,1.53s.99,1.33,1.28,2.09h.12v-11.35h8.03v29.81h-7.98v-3.67h-.18c-.31.76-.75,1.43-1.33,2.03-.58.6-1.28,1.07-2.1,1.41-.82.34-1.75.52-2.8.52Zm2.97-6.17c.74,0,1.37-.22,1.9-.65.53-.43.94-1.04,1.22-1.83.29-.79.43-1.73.43-2.82s-.14-2.05-.43-2.85c-.29-.79-.69-1.4-1.22-1.82-.53-.42-1.16-.63-1.9-.63s-1.37.21-1.88.63c-.52.42-.92,1.03-1.19,1.82-.28.79-.42,1.74-.42,2.85s.14,2.05.42,2.85c.28.79.67,1.4,1.19,1.82s1.15.63,1.88.63Z"/>
    <path class="cls-1" d="m231.89,41.04c-1.43,0-2.69-.24-3.78-.71-1.09-.47-1.95-1.19-2.57-2.15s-.93-2.18-.93-3.67c0-1.22.21-2.27.63-3.14s1-1.58,1.75-2.13c.75-.55,1.62-.98,2.61-1.27s2.07-.48,3.22-.57c1.25-.1,2.26-.22,3.02-.36.76-.14,1.31-.34,1.65-.6.34-.26.51-.6.51-1.03v-.06c0-.58-.22-1.03-.67-1.34s-1.02-.47-1.72-.47c-.77,0-1.39.17-1.87.5-.48.34-.77.85-.87,1.54h-7.39c.1-1.36.53-2.61,1.3-3.76.77-1.15,1.9-2.07,3.38-2.77,1.48-.69,3.34-1.04,5.56-1.04,1.6,0,3.04.19,4.31.56,1.27.37,2.35.89,3.25,1.56s1.57,1.44,2.04,2.33.71,1.85.71,2.89v15.31h-7.51v-3.14h-.18c-.45.83-.99,1.51-1.62,2.02s-1.36.89-2.17,1.12-1.7.35-2.67.35Zm2.62-5.06c.61,0,1.19-.13,1.73-.38.54-.25.98-.62,1.32-1.09s.51-1.05.51-1.73v-1.86c-.21.09-.44.17-.68.25-.24.08-.49.15-.76.22-.27.07-.55.13-.84.19-.3.06-.6.11-.92.16-.62.1-1.13.25-1.52.47s-.68.49-.87.8c-.19.32-.28.67-.28,1.06,0,.62.22,1.1.66,1.43.44.33.99.5,1.67.5Z"/>
    <path class="cls-1" d="m263.21,18.33v5.82h-14.73v-5.82h14.73Zm-11.88-5.36h8.03v20.52c0,.31.05.57.16.78.11.21.27.36.5.47.22.1.51.15.86.15.24,0,.53-.03.85-.09.33-.06.57-.11.72-.15l1.16,5.65c-.36.11-.87.24-1.53.39-.66.16-1.45.26-2.36.31-1.84.1-3.39-.09-4.64-.57-1.25-.48-2.19-1.24-2.82-2.28-.63-1.04-.94-2.34-.92-3.9V12.98Z"/>
    <path class="cls-1" d="m272.7,41.04c-1.43,0-2.69-.24-3.78-.71-1.09-.47-1.95-1.19-2.57-2.15s-.93-2.18-.93-3.67c0-1.22.21-2.27.63-3.14.42-.87,1-1.58,1.75-2.13.75-.55,1.62-.98,2.61-1.27.99-.29,2.07-.48,3.22-.57,1.25-.1,2.26-.22,3.02-.36.76-.14,1.31-.34,1.65-.6s.51-.6.51-1.03v-.06c0-.58-.22-1.03-.67-1.34s-1.02-.47-1.72-.47c-.77,0-1.39.17-1.87.5-.48.34-.77.85-.87,1.54h-7.39c.1-1.36.53-2.61,1.3-3.76.77-1.15,1.9-2.07,3.38-2.77,1.49-.69,3.34-1.04,5.56-1.04,1.6,0,3.04.19,4.31.56,1.27.37,2.35.89,3.25,1.56s1.57,1.44,2.04,2.33.71,1.85.71,2.89v15.31h-7.51v-3.14h-.18c-.45.83-.99,1.51-1.62,2.02s-1.36.89-2.17,1.12c-.81.23-1.7.35-2.67.35Zm2.62-5.06c.61,0,1.19-.13,1.72-.38s.98-.62,1.32-1.09.51-1.05.51-1.73v-1.86c-.21.09-.44.17-.68.25-.24.08-.49.15-.76.22s-.55.13-.84.19-.6.11-.92.16c-.62.1-1.13.25-1.52.47-.39.22-.69.49-.87.8-.19.32-.28.67-.28,1.06,0,.62.22,1.1.65,1.43.44.33.99.5,1.67.5Z"/>
    <path class="cls-1" d="m290.57,40.69V10.88h8.04v11.35h.12c.29-.76.72-1.45,1.28-2.09.56-.64,1.26-1.15,2.1-1.53s1.8-.58,2.91-.58c1.47,0,2.88.39,4.21,1.18,1.33.79,2.42,2.02,3.26,3.71s1.26,3.88,1.26,6.58-.4,4.72-1.2,6.42c-.8,1.7-1.87,2.96-3.2,3.8s-2.8,1.25-4.39,1.25c-1.05,0-1.98-.17-2.8-.52-.82-.34-1.52-.81-2.1-1.41-.58-.6-1.02-1.27-1.33-2.03h-.17v3.67h-7.98Zm7.86-11.18c0,1.09.14,2.03.43,2.82.29.79.69,1.4,1.22,1.83.53.43,1.16.65,1.9.65s1.37-.21,1.88-.63c.52-.42.92-1.03,1.19-1.82.28-.79.42-1.74.42-2.85s-.14-2.05-.42-2.85c-.28-.79-.67-1.4-1.19-1.82-.52-.42-1.15-.63-1.88-.63s-1.37.21-1.9.63c-.53.42-.94,1.03-1.22,1.82-.29.79-.43,1.74-.43,2.85Z"/>
    <path class="cls-1" d="m323.35,41.04c-1.43,0-2.69-.24-3.78-.71-1.09-.47-1.95-1.19-2.57-2.15s-.93-2.18-.93-3.67c0-1.22.21-2.27.63-3.14.42-.87,1-1.58,1.75-2.13.75-.55,1.62-.98,2.61-1.27.99-.29,2.07-.48,3.22-.57,1.25-.1,2.26-.22,3.02-.36.76-.14,1.31-.34,1.65-.6s.51-.6.51-1.03v-.06c0-.58-.22-1.03-.67-1.34s-1.02-.47-1.72-.47c-.77,0-1.39.17-1.87.5-.48.34-.77.85-.87,1.54h-7.39c.1-1.36.53-2.61,1.3-3.76.77-1.15,1.9-2.07,3.38-2.77,1.49-.69,3.34-1.04,5.56-1.04,1.6,0,3.04.19,4.31.56,1.27.37,2.35.89,3.25,1.56s1.57,1.44,2.04,2.33.71,1.85.71,2.89v15.31h-7.51v-3.14h-.18c-.45.83-.99,1.51-1.62,2.02s-1.36.89-2.17,1.12c-.81.23-1.7.35-2.67.35Zm2.62-5.06c.61,0,1.19-.13,1.72-.38s.98-.62,1.32-1.09.51-1.05.51-1.73v-1.86c-.21.09-.44.17-.68.25-.24.08-.49.15-.76.22s-.55.13-.84.19-.6.11-.92.16c-.62.1-1.13.25-1.52.47-.39.22-.69.49-.87.8-.19.32-.28.67-.28,1.06,0,.62.22,1.1.65,1.43.44.33.99.5,1.67.5Z"/>
    <path class="cls-1" d="m361.77,25.61h-7.39c-.04-.46-.2-.85-.48-1.18-.28-.33-.64-.58-1.09-.76-.44-.18-.93-.27-1.46-.27-.69,0-1.28.13-1.77.38-.5.25-.74.61-.73,1.08,0,.33.13.64.43.92.3.28.87.5,1.72.65l4.54.82c2.29.42,3.99,1.12,5.12,2.1,1.12.99,1.69,2.3,1.7,3.95,0,1.59-.48,2.97-1.42,4.14s-2.21,2.07-3.83,2.71c-1.62.64-3.46.95-5.52.95-3.42,0-6.09-.7-8.01-2.1-1.93-1.4-3-3.24-3.22-5.53h7.98c.11.71.46,1.25,1.06,1.64s1.35.58,2.26.58c.74,0,1.35-.13,1.83-.38s.73-.61.74-1.08c0-.43-.22-.77-.63-1.02s-1.06-.46-1.93-.61l-3.96-.7c-2.28-.4-3.99-1.15-5.12-2.27-1.14-1.12-1.7-2.55-1.69-4.31-.01-1.55.4-2.87,1.23-3.95s2.02-1.91,3.57-2.47c1.55-.57,3.38-.85,5.51-.85,3.23,0,5.78.67,7.65,2.01,1.87,1.34,2.85,3.19,2.95,5.56Z"/>
    <path class="cls-1" d="m376.15,41.1c-2.39,0-4.44-.46-6.16-1.38-1.72-.92-3.05-2.24-3.97-3.96-.93-1.72-1.39-3.79-1.39-6.19s.47-4.33,1.4-6.06c.93-1.73,2.25-3.07,3.94-4.03,1.7-.96,3.7-1.44,6.01-1.44,1.69,0,3.22.26,4.59.79,1.37.52,2.54,1.28,3.51,2.28s1.72,2.2,2.24,3.62c.52,1.42.79,3.01.79,4.79v1.86h-19.97v-4.42h12.58c-.01-.64-.17-1.21-.49-1.7-.31-.49-.74-.87-1.27-1.15-.53-.28-1.13-.41-1.8-.41s-1.25.14-1.79.41c-.54.28-.98.66-1.3,1.14-.33.49-.5,1.05-.52,1.7v4.77c0,.72.15,1.36.45,1.92.3.56.73,1,1.3,1.32s1.24.48,2.04.48c.55,0,1.06-.08,1.52-.23s.86-.38,1.19-.68c.33-.3.57-.65.73-1.07h7.33c-.25,1.55-.85,2.9-1.79,4.04-.94,1.14-2.19,2.02-3.73,2.65-1.55.63-3.36.94-5.42.94Z"/>
    <path class="cls-1" d="m398.39,28.11v12.58h-8.03v-22.36h7.63v4.25h.23c.48-1.42,1.34-2.53,2.57-3.33s2.66-1.21,4.3-1.21,2.96.36,4.13,1.08c1.17.72,2.08,1.72,2.72,2.98.65,1.26.96,2.7.95,4.32v14.26h-8.04v-12.58c0-1.11-.27-1.97-.84-2.61-.57-.63-1.36-.95-2.36-.95-.66,0-1.23.14-1.72.43s-.87.69-1.13,1.22c-.26.53-.4,1.16-.41,1.9Z"/>
  </g>
</svg>