<?xml version="1.0" encoding="UTF-8"?>
<svg id="Layer_14" data-name="Layer 14" xmlns="http://www.w3.org/2000/svg" viewBox="0 0 200 200">
  <defs>
    <style>
      .cls-1 {
        fill: #8ac957;
      }
    </style>
  </defs>
  <path class="cls-1" d="m100,2C45.88,2,2,45.88,2,100s43.88,98,98,98,98-43.88,98-98S154.12,2,100,2Zm43.55,136c-9.61,2.97-14.62,1.75-18.68,2.51-4.06.76-29.52-.57-29.52-.57,0,0-10.23,22.19-10.79,23.08-.56.9-13.35-3.44-12.84-4.88s7.09-19.96,7.64-22.54c.55-2.58-14.01-5.42-25.86-13.19-11.85-7.77-33.64-40.96-29.9-41.04,3.74-.08,7.54.35,18.11,3.72,10.57,3.37,18.92,8.35,18.92,8.35,0,0-1.85-12.25-1.55-18.53.3-6.28.78-14.64,2.17-14.56,1.39.08,7.51,3.77,9.41,5.85,1.9,2.09,13.8,13.59,14.84,15.02,1.04,1.43,6.05-15.88,9.02-21.35,2.97-5.47,14.1-23.21,15.17-22.9,1.08.31,6.15,16.17,6.39,27.03.24,10.87.56,7.96.24,10.87-.32,2.9,5.08-4.54,6.18-3.52,1.1,1.02-.93,6.32-1.11,7.84-.17,1.52-2.19,9.36-2.19,9.36l18.18-11.74s11.17-5.68,12.66-4.46-8.4,21.72-10.84,24.86c-2.44,3.14-7.7,14.12-6.24,14.48,1.46.36,4.25-.17,4.25-.17,0,0,.69-.31,10.42-.45s31.73,5.21,28.96,7.56c-2.77,2.35-23.42,16.39-33.03,19.36Z"/>
</svg>